M48
INCH,TZ
T1C0.0157
T2C0.0197
T3C0.0315
T4C0.0402
T5C0.0469
T6C0.0472
T7C0.0500
T8C0.0591
%
G90
G05
T1
X28840Y-23600
X28860Y-22060
X28880Y-25200
X30160Y-27500
X30180Y-30600
X30220Y-29540
X30920Y-22080
X30940Y-23600
X30940Y-25220
X31240Y-27500
X32580Y-28840
X32600Y-30000
X32800Y-23540
X33440Y-28060
X34240Y-27840
X34400Y-21980
X34860Y-30540
X35140Y-25500
X37000Y-20060
X37020Y-17820
X37040Y-22560
X37160Y-25480
X37340Y-30380
X37400Y-28940
X38600Y-27600
X39280Y-25520
X40200Y-28280
X40600Y-27480
X40820Y-17800
X40840Y-20060
X40840Y-22600
X41920Y-28960
X42580Y-27400
X42640Y-29360
X42640Y-30400
X44540Y-25380
X44580Y-27400
X44620Y-28340
X44680Y-17840
X44680Y-22560
X44720Y-20100
X46120Y-28880
X46320Y-27580
X46460Y-24420
X47700Y-28900
X47840Y-25440
X47960Y-23500
X48200Y-16320
X48480Y-27520
X48860Y-18320
X48860Y-22280
X49140Y-16980
X49160Y-15640
X49180Y-21060
X50720Y-31020
X50740Y-28980
X50740Y-30120
X50760Y-22280
X50780Y-27500
X51020Y-21260
X51040Y-19960
X51100Y-25520
X51300Y-17640
X51700Y-19860
X52020Y-18260
X52520Y-22300
X52960Y-27500
X53240Y-19740
X53300Y-18220
X53360Y-17000
X53380Y-15620
T3
X44533Y-30177
X45320Y-30177
X46107Y-30177
T4
X28807Y-16413
X28807Y-26413
X29807Y-16413
X29807Y-26413
X30807Y-16413
X30807Y-26413
X31807Y-16413
X31807Y-26413
X32807Y-16413
X32807Y-26413
X33807Y-16413
X33807Y-26413
X34807Y-16413
X34807Y-26413
X35807Y-16413
X35807Y-26413
X36807Y-16413
X36807Y-26413
X37807Y-16413
X37807Y-26413
X38807Y-16413
X38807Y-26413
X39807Y-16413
X39807Y-26413
X40807Y-16413
X40807Y-26413
X41807Y-16413
X41807Y-26413
X42807Y-16413
X42807Y-26413
X43807Y-16413
X43807Y-26413
X44807Y-16413
X44807Y-26413
X45807Y-16413
X45807Y-26413
X46807Y-16413
X46807Y-26413
T5
X52120Y-23480
X52120Y-24480
X52120Y-25480
T6
X48800Y-29880
X48996Y-25482
X49784Y-29880
X49980Y-25482
X51628Y-29822
X52612Y-29822
T7
X38940Y-30460
X39944Y-30460
X40948Y-30460
T8
X43706Y-30177
X46934Y-30177
T2
G00X28517Y-29243
M15
G01X28517Y-29677
M16
G05
G00X29363Y-28220
M15
G01X29363Y-28495
M16
G05
G00X29363Y-30425
M15
G01X29363Y-30700
M16
G05
T0
M30
